<svg width="96" height="24" viewBox="0 0 96 24" fill="none" xmlns="http://www.w3.org/2000/svg">
<path d="M7.736 3.216V19.896H5V3.216H7.736Z" fill="white"/>
<path d="M25.0321 19.896H22.2961L14.0641 7.44V19.896H11.3281V3.192H14.0641L22.2961 15.624V3.192H25.0321V19.896Z" fill="white"/>
<path d="M37.553 11.328C38.449 11.488 39.209 11.96 39.833 12.744C40.457 13.528 40.769 14.416 40.769 15.408C40.769 16.256 40.545 17.024 40.097 17.712C39.665 18.384 39.033 18.92 38.201 19.32C37.369 19.704 36.401 19.896 35.297 19.896H28.625V3.216H34.985C36.121 3.216 37.097 3.408 37.913 3.792C38.729 4.176 39.345 4.696 39.761 5.352C40.177 5.992 40.385 6.712 40.385 7.512C40.385 8.472 40.129 9.272 39.617 9.912C39.105 10.552 38.417 11.024 37.553 11.328ZM31.361 10.224H34.745C35.641 10.224 36.337 10.024 36.833 9.624C37.345 9.208 37.601 8.616 37.601 7.848C37.601 7.096 37.345 6.512 36.833 6.096C36.337 5.664 35.641 5.448 34.745 5.448H31.361V10.224ZM35.057 17.664C35.985 17.664 36.713 17.44 37.241 16.992C37.769 16.544 38.033 15.92 38.033 15.12C38.033 14.304 37.753 13.656 37.193 13.176C36.633 12.696 35.889 12.456 34.961 12.456H31.361V17.664H35.057Z" fill="white"/>
<path d="M51.3502 20.064C49.7982 20.064 48.3662 19.704 47.0542 18.984C45.7582 18.248 44.7262 17.232 43.9582 15.936C43.2062 14.624 42.8302 13.152 42.8302 11.52C42.8302 9.888 43.2062 8.424 43.9582 7.128C44.7262 5.832 45.7582 4.824 47.0542 4.104C48.3662 3.368 49.7982 3 51.3502 3C52.9182 3 54.3502 3.368 55.6462 4.104C56.9582 4.824 57.9902 5.832 58.7422 7.128C59.4942 8.424 59.8702 9.888 59.8702 11.52C59.8702 13.152 59.4942 14.624 58.7422 15.936C57.9902 17.232 56.9582 18.248 55.6462 18.984C54.3502 19.704 52.9182 20.064 51.3502 20.064ZM51.3502 17.688C52.4542 17.688 53.4382 17.44 54.3022 16.944C55.1662 16.432 55.8382 15.712 56.3182 14.784C56.8142 13.84 57.0622 12.752 57.0622 11.52C57.0622 10.288 56.8142 9.208 56.3182 8.28C55.8382 7.352 55.1662 6.64 54.3022 6.144C53.4382 5.648 52.4542 5.4 51.3502 5.4C50.2462 5.4 49.2622 5.648 48.3982 6.144C47.5342 6.64 46.8542 7.352 46.3582 8.28C45.8782 9.208 45.6382 10.288 45.6382 11.52C45.6382 12.752 45.8782 13.84 46.3582 14.784C46.8542 15.712 47.5342 16.432 48.3982 16.944C49.2622 17.44 50.2462 17.688 51.3502 17.688Z" fill="white"/>
<path d="M70.2185 11.568L75.4025 19.896H72.3305L68.5625 13.848L65.0345 19.896H61.9865L67.1705 11.568L61.9625 3.216H65.0345L68.8265 9.312L72.3785 3.216H75.4265L70.2185 11.568Z" fill="white"/>
<path d="M91.2942 12.384H86.4462V17.352H83.9022V12.384H79.0542V10.08H83.9022V5.112H86.4462V10.08H91.2942V12.384Z" fill="white"/>
</svg>
